<svg xmlns="http://www.w3.org/2000/svg"  viewBox="0 0 48 48" width="48px" height="48px" baseProfile="basic"><path fill="#38b47b" d="M41.5,37.5c0,2,0,2,0,3L6.35,40.3c-0.73-1.22-1.29-2.01-1.85-2.79v-5.33c1.6,2.33,3.62,5.32,4,5.32 C17.89,37.49,32.11,37.51,41.5,37.5z"/><path fill="#38b47b" d="M19.5,34.5c2.258-0.006,3,0,6,0c-3-3-7-7-8-14c-3,1-3,1-7,2C10.5,25.5,15.5,32.5,19.5,34.5z"/><path fill="#38b47b" d="M41.5,11.5c-6,2-9,3-13,6c0,6,4.204,13.462,9,17c0,0-1,0-5,0c-7-5-12-13-12-21c7-5,15-7,21-7 C41.5,6.5,41.5,9.5,41.5,11.5z"/><path fill="#38b47b" d="M38.063,29.166c-0.358-0.245-0.6-0.622-0.826-0.992c-1.042-1.705-1.968-3.48-2.77-5.311 c-0.278-0.634-0.546-1.314-0.446-1.998c0.119-0.819,0.711-1.49,1.319-2.052c2.187-2.026,6.27-3.422,6.271-3.211 c0.009,1.292,0.031,4.518-0.082,4.814c-0.464,1.221-2.413,1.17-3.044,2.314c-0.231,0.42-0.235,0.923-0.233,1.402 C38.26,25.604,38.063,29.166,38.063,29.166z"/><path fill="#1d1d1b" d="M41,37.5c0,1,0,2,0,3c0.167-0.167,0.333-0.333,0.5-0.5c-3.973-0.023-7.946-0.045-11.919-0.068 c-6.287-0.036-12.575-0.072-18.862-0.107C9.263,39.817,7.806,39.808,6.35,39.8c0.144,0.083,0.288,0.165,0.432,0.248 c-0.348-0.578-0.708-1.149-1.088-1.707c-0.158-0.232-0.319-0.461-0.481-0.69c0.01,0.014-0.334-0.446-0.213-0.144 c-0.003-0.009,0.003-0.021,0-0.03c-0.129-0.45,0-1.131,0-1.594c0-1.234,0-2.468,0-3.702c-0.311,0.084-0.621,0.168-0.932,0.252 c0.812,1.183,1.615,2.372,2.457,3.534c0.436,0.602,0.948,1.545,1.622,1.925C8.496,38.088,8.95,38,9.336,37.999 c0.64-0.001,1.279-0.001,1.919-0.001c1.339-0.001,2.679-0.001,4.018-0.001c5.797,0,11.595,0.004,17.392,0.006 c2.945,0.001,5.89,0,8.835-0.003c0.643-0.001,0.645-1.001,0-1c-10.636,0.011-21.272-0.01-31.909-0.001 c-0.288,0-0.644,0.061-0.926,0.001c-0.133-0.028-0.022,0.027-0.002,0.036c-0.058-0.025-0.129-0.119-0.167-0.164 c-0.336-0.389-0.651-0.788-0.955-1.203c-0.899-1.226-1.749-2.488-2.609-3.742C4.661,31.534,4,31.658,4,32.18 c0,1.559,0,3.118,0,4.676c0,0.207-0.025,0.432,0,0.638c0.064,0.518,0.641,1.069,0.93,1.498c0.218,0.324,0.43,0.652,0.637,0.984 c0.169,0.271,0.316,0.702,0.65,0.806c0.086,0.027,0.138,0.011,0.217,0.018c0.646,0.058,1.321,0.008,1.97,0.011 c1.321,0.008,2.642,0.015,3.963,0.023c7.673,0.044,15.347,0.087,23.02,0.131c2.038,0.012,4.076,0.023,6.114,0.035 c0.27,0.002,0.5-0.23,0.5-0.5c0-1,0-2,0-3C42,36.857,41,36.855,41,37.5z"/><path fill="#1d1d1b" d="M19.5,35c2-0.005,4,0,6,0c0.433,0,0.66-0.547,0.354-0.854c-1.687-1.687-3.344-3.407-4.672-5.399 c-1.689-2.534-2.754-5.37-3.2-8.38c-0.038-0.258-0.383-0.427-0.615-0.349c-2.313,0.771-4.635,1.409-7,2 C10.158,22.07,9.997,22.285,10,22.5c0.016,1.043,0.416,2.052,0.852,2.984c0.602,1.289,1.374,2.5,2.217,3.643 c1.649,2.238,3.667,4.521,6.179,5.804c0.572,0.292,1.079-0.57,0.505-0.863c-2.356-1.203-4.273-3.344-5.821-5.446 c-0.787-1.069-1.51-2.194-2.094-3.387c-0.411-0.84-0.823-1.785-0.838-2.735c-0.122,0.161-0.245,0.321-0.367,0.482 c2.365-0.591,4.687-1.229,7-2c-0.205-0.116-0.41-0.233-0.615-0.349c0.456,3.086,1.569,6.022,3.3,8.619 c1.375,2.063,3.081,3.854,4.828,5.601c0.118-0.285,0.236-0.569,0.354-0.854c-2,0-4-0.005-6,0C18.857,34.002,18.855,35.002,19.5,35 z"/><path fill="#1d1d1b" d="M41.367,11.018c-4.323,1.441-8.639,2.853-12.389,5.517c-0.352,0.25-0.912,0.503-0.978,0.965 c-0.077,0.539,0.043,1.179,0.107,1.716c0.136,1.13,0.377,2.243,0.71,3.331c0.716,2.344,1.804,4.585,3.149,6.632 c1.437,2.187,3.179,4.184,5.282,5.753c0.084-0.311,0.168-0.621,0.252-0.932c-0.714,0-1.428,0-2.142,0c-0.465,0-0.929,0-1.394,0 c-0.631,0-1.178,0.101-1.701-0.288c-0.937-0.698-1.83-1.454-2.681-2.255c-3.191-3.006-5.81-6.72-7.293-10.862 c-0.817-2.282-1.278-4.669-1.29-7.095c-0.083,0.144-0.165,0.288-0.248,0.432C26.744,9.68,34.113,7.022,41.5,7 c-0.167-0.167-0.333-0.333-0.5-0.5c0,1.667,0,3.333,0,5c0,0.643,1,0.645,1,0c0-1.667,0-3.333,0-5c0-0.27-0.229-0.501-0.5-0.5 c-3.539,0.01-7.079,0.638-10.449,1.703C29.13,8.31,27.253,9.067,25.446,9.96c-0.943,0.466-1.867,0.971-2.769,1.514 c-0.444,0.267-0.883,0.544-1.316,0.83c-0.378,0.25-1.059,0.545-1.293,0.944c-0.175,0.3-0.062,0.859-0.046,1.19 c0.023,0.469,0.062,0.937,0.118,1.404c0.106,0.889,0.26,1.772,0.471,2.642c0.441,1.819,1.111,3.582,1.945,5.257 c1.736,3.484,4.219,6.606,7.141,9.171c0.43,0.377,0.87,0.743,1.32,1.096c0.371,0.291,0.8,0.734,1.231,0.925 C32.696,35.131,33.376,35,33.863,35c0.498,0,0.997,0,1.495,0c0.714,0,1.428,0,2.142,0c0.536,0,0.627-0.652,0.252-0.932 c-2.577-1.923-4.601-4.585-6.119-7.397C30.121,23.869,29.021,20.712,29,17.5c-0.083,0.144-0.165,0.288-0.248,0.432 c1.77-1.321,3.653-2.451,5.676-3.343c2.337-1.029,4.785-1.801,7.205-2.607C42.24,11.78,41.98,10.814,41.367,11.018z"/><path fill="#1d1d1b" d="M38.315,28.734c-0.659-0.507-1.064-1.496-1.463-2.205c-0.452-0.804-0.878-1.622-1.279-2.453 c-0.405-0.84-1-1.811-1.068-2.757c-0.066-0.919,0.617-1.636,1.249-2.209c1.02-0.923,2.265-1.606,3.507-2.181 c0.503-0.233,1.016-0.447,1.541-0.629c0.177-0.062,0.356-0.117,0.536-0.17c0.276-0.08,0.234,0.014,0.017-0.109 c-0.077-0.1-0.153-0.199-0.23-0.299c0.053,0.129-0.009,0.657-0.008,0.874c0.002,0.358,0.002,0.717,0.002,1.075 c-0.001,0.673-0.001,1.346-0.027,2.018c-0.022,0.568-0.065,0.824-0.63,1.157c-0.598,0.353-1.281,0.54-1.832,0.975 c-1.206,0.954-0.869,2.768-0.919,4.137c-0.039,1.069-0.09,2.137-0.149,3.204c-0.036,0.643,0.965,0.641,1,0 c0.043-0.782,0.081-1.564,0.115-2.346c0.024-0.562,0.046-1.124,0.061-1.686c0.017-0.656-0.136-1.566,0.179-2.152 c0.505-0.94,1.97-0.99,2.684-1.76c0.617-0.665,0.5-1.618,0.511-2.46c0.007-0.571,0.008-1.143,0.006-1.714 c-0.001-0.463,0.122-1.147-0.029-1.589c-0.242-0.706-1.252-0.231-1.714-0.064c-1.158,0.418-2.289,0.949-3.347,1.578 c-1.16,0.689-2.429,1.568-3.117,2.758c-0.972,1.681,0.147,3.519,0.9,5.058c0.439,0.898,0.908,1.78,1.406,2.646 c0.45,0.781,0.868,1.605,1.593,2.163C38.32,29.99,38.819,29.122,38.315,28.734z"/></svg>